<svg xmlns="http://www.w3.org/2000/svg" width="32" height="32" viewBox="0 0 32 32">
  <defs>
    <style>
      .runner { fill: #fc4c02; }
      .bg { fill: #ffffff; }
    </style>
  </defs>
  
  <!-- Background circle -->
  <circle class="bg" cx="16" cy="16" r="15" stroke="#fc4c02" stroke-width="2"/>
  
  <!-- Running person -->
  <g class="runner">
    <!-- Head -->
    <circle cx="16" cy="8" r="2.5"/>
    
    <!-- Body -->
    <rect x="14.5" y="10" width="3" height="8" rx="1"/>
    
    <!-- Arms -->
    <rect x="11" y="12" width="2" height="6" rx="1" transform="rotate(-30 12 15)"/>
    <rect x="19" y="12" width="2" height="6" rx="1" transform="rotate(30 20 15)"/>
    
    <!-- Legs in running position -->
    <rect x="13" y="18" width="2" height="7" rx="1" transform="rotate(-20 14 21)"/>
    <rect x="17" y="18" width="2" height="7" rx="1" transform="rotate(45 18 21)"/>
    
    <!-- Motion lines -->
    <rect x="22" y="14" width="3" height="1" rx="0.5" opacity="0.6"/>
    <rect x="21" y="16" width="4" height="1" rx="0.5" opacity="0.4"/>
    <rect x="23" y="18" width="2" height="1" rx="0.5" opacity="0.3"/>
  </g>
</svg> 